<?xml version="1.0" standalone="no"?><!DOCTYPE svg PUBLIC "-//W3C//DTD SVG 1.1//EN" "http://www.w3.org/Graphics/SVG/1.1/DTD/svg11.dtd"><svg t="1758160195383" class="icon" viewBox="0 0 1024 1024" version="1.1" xmlns="http://www.w3.org/2000/svg" p-id="6611" xmlns:xlink="http://www.w3.org/1999/xlink" width="256" height="256"><path d="M832 576a63.136 63.136 0 0 1-41.664 59.744L584 712l-76 206.496a63.68 63.68 0 0 1-119.52 0L312 712l-206.464-76a63.68 63.68 0 0 1 0-119.52l206.464-76.48 76-206.464a63.68 63.68 0 0 1 119.52 0l76.48 206.464 206.496 76A63.104 63.104 0 0 1 832 576zM608 192h64v64a32 32 0 0 0 64 0V192h64a32 32 0 1 0 0-64h-64V64a32 32 0 0 0-64 0v64h-64a32 32 0 1 0 0 64z m352 128h-32V288a32 32 0 0 0-64 0v32h-32a32 32 0 0 0 0 64h32v32a32 32 0 0 0 64 0v-32h32a32 32 0 0 0 0-64z" p-id="6612" fill="#fcd56b"></path></svg>